#!OML:ASF E:\Style4\Style4.ASF
:FULLY-SPECIFIED
:DEGREES
1871
root 0.0689445 17.5641 -1.2705 1.35159 -1.5552 2.6043
lowerback 6.77677 2.03864 -0.305395
upperback 2.52909 2.68704 -0.136838
thorax -1.19654 1.3402 -0.175513
lowerneck -0.592568 -4.90646 -5.48781
upperneck 3.3395 -6.54225 2.92258
head 1.44477 -3.29378 1.7457
rclavicle 3.23522e-014 -5.56597e-015
rhumerus 6.93239 23.5091 -70.2559
rradius 70.637
rwrist 10.2517
rhand -22.4768 19.9381
rfingers 7.12502
rthumb 3.94836 -10.0051
lclavicle 3.23522e-014 -5.56597e-015
lhumerus -1.44441 -36.317 74.3364
lradius 70.6011
lwrist -7.6409
lhand -22.18 29.535
lfingers 7.12502
lthumb 4.23497 59.4727
rfemur -17.8586 2.79396 15.3566
rtibia 38.7257
rfoot -20.8041 -11.6126
rtoes -13.4624
lfemur -15.8829 -1.04906 -21.6397
ltibia 36.1662
lfoot -21.4362 7.86886
ltoes -14.2247
1872
root 0.0685015 17.5692 -1.26017 1.38521 -1.6094 2.46429
lowerback 6.83952 2.06409 -0.16654
upperback 2.40855 2.72963 -0.122892
thorax -1.34961 1.36164 -0.247486
lowerneck -0.639445 -4.90763 -5.52969
upperneck 3.42437 -6.54246 2.94836
head 1.48303 -3.29438 1.75939
rclavicle -1.58531e-014 -5.96354e-015
rhumerus 5.65594 20.9405 -70.6391
rradius 70.1133
rwrist 10.4013
rhand -23.0413 19.4857
rfingers 7.12502
rthumb 3.40326 -10.4669
lclavicle -1.58531e-014 -5.96354e-015
lhumerus -2.71942 -34.2415 74.3695
lradius 71.0105
lwrist -6.8849
lhand -21.5623 30.139
lfingers 7.12502
lthumb 4.83141 60.0639
rfemur -17.8158 2.86283 15.5155
rtibia 38.635
rfoot -20.8704 -11.5528
rtoes -12.96
lfemur -15.7872 -1.03008 -21.4826
ltibia 36
lfoot -21.4277 7.97312
ltoes -14.6222
1873
root 0.06838 17.5727 -1.25052 1.36629 -1.64051 2.65998
lowerback 6.91352 2.09505 -0.420063
upperback 2.32418 2.75277 -0.157153
thorax -1.48761 1.37267 -0.147985
lowerneck -0.632633 -4.91464 -5.49673
upperneck 3.40393 -6.54783 2.81295
head 1.46834 -3.2984 1.71011
rclavicle -8.24956e-015 4.37326e-015
rhumerus 4.53122 18.5196 -70.8833
rradius 69.6891
rwrist 10.0186
rhand -23.3043 18.5319
rfingers 7.12502
rthumb 3.1492 -11.4246
lclavicle -8.24956e-015 4.37326e-015
lhumerus -3.96349 -32.0621 74.3998
lradius 71.401
lwrist -6.25906
lhand -22.1996 31.6947
lfingers 7.12502
lthumb 4.21599 61.6328
rfemur -17.7338 2.85971 15.2931
rtibia 38.5547
rfoot -20.9245 -11.4491
rtoes -12.566
lfemur -15.6482 -1.03688 -21.7105
ltibia 35.824
lfoot -21.3959 8.16332
ltoes -15.1578
1874
root 0.0682858 17.5759 -1.24092 1.36043 -1.67013 2.93904
lowerback 6.89898 2.12209 -0.782829
upperback 2.26767 2.7632 -0.215776
thorax -1.55184 1.3777 -0.00727063
lowerneck -0.566872 -4.9046 -5.43532
upperneck 3.33197 -6.53482 2.70984
head 1.42628 -3.29241 1.66877
rclavicle 5.86912e-014 -4.77083e-015
rhumerus 3.53893 15.9912 -71.0934
rradius 69.2106
rwrist 9.67127
rhand -23.4678 18.1733
rfingers 7.12502
rthumb 2.99136 -11.7854
lclavicle 5.86912e-014 -4.77083e-015
lhumerus -5.18609 -30.0129 74.3179
lradius 71.8138
lwrist -5.24608
lhand -23.5803 33.2157
lfingers 7.12502
lthumb 2.88267 63.176
rfemur -17.659 2.84972 14.9795
rtibia 38.4693
rfoot -20.8388 -11.4908
rtoes -13.0083
lfemur -15.5192 -1.08152 -22.0262
ltibia 35.6649
lfoot -21.41 8.18418
ltoes -14.8452
1875
root 0.0679791 17.5821 -1.23266 1.43328 -1.68424 2.85624
lowerback 6.83175 2.12017 -0.733598
upperback 2.19247 2.76443 -0.213499
thorax -1.58977 1.37856 -0.0316748
lowerneck -0.646636 -4.86876 -5.4399
upperneck 3.41981 -6.48528 2.75841
head 1.46843 -3.26726 1.68358
rclavicle 5.56597e-015 6.36111e-015
rhumerus 2.61418 13.3594 -71.2343
rradius 68.7482
rwrist 9.75652
rhand -23.676 17.8793
rfingers 7.12502
rthumb 2.7903 -12.0822
lclavicle 5.56597e-015 6.36111e-015
lhumerus -6.33338 -27.8073 74.0893
lradius 72.1667
lwrist -4.5999
lhand -23.8218 33.239
lfingers 7.12502
lthumb 2.64948 63.2023
rfemur -17.6526 2.92664 15.0694
rtibia 38.3698
rfoot -20.8085 -11.5153
rtoes -12.9647
lfemur -15.4946 -1.10063 -21.9291
ltibia 35.5383
lfoot -21.4438 8.13752
ltoes -14.2607
1876
root 0.0671225 17.5892 -1.22522 1.53509 -1.66141 2.65992
lowerback 6.75534 2.11947 -0.563756
upperback 2.10795 2.77606 -0.175818
thorax -1.62832 1.38453 -0.0877931
lowerneck -0.732007 -4.87739 -5.46676
upperneck 3.50086 -6.49479 2.81889
head 1.51349 -3.27157 1.70472
rclavicle -9.93923e-017 2.38542e-015
rhumerus 1.68705 10.7233 -71.2409
rradius 68.3785
rwrist 10.0698
rhand -23.7972 17.4227
rfingers 7.12502
rthumb 2.67326 -12.5403
lclavicle -9.93923e-017 2.38542e-015
lhumerus -7.4289 -25.3394 73.8335
lradius 72.3871
lwrist -4.65849
lhand -22.9915 32.145
lfingers 7.12502
lthumb 3.45128 62.0968
rfemur -17.6585 2.98518 15.2933
rtibia 38.237
rfoot -20.8206 -11.5601
rtoes -12.5229
lfemur -15.5498 -1.13503 -21.7004
ltibia 35.4775
lfoot -21.4611 8.09758
ltoes -13.9829
